<?xml version="1.0" encoding="UTF-8" standalone="no"?>
<!DOCTYPE svg PUBLIC "-//W3C//DTD SVG 1.1//EN"
 "http://www.w3.org/Graphics/SVG/1.1/DTD/svg11.dtd">
<!-- Generated by graphviz version 3.0.0 (20220226.1711)
 -->
<!-- Title: Tree Pages: 1 -->
<svg width="1677pt" height="671pt"
 viewBox="0.00 0.00 1676.50 671.00" xmlns="http://www.w3.org/2000/svg" xmlns:xlink="http://www.w3.org/1999/xlink">
<g id="graph0" class="graph" transform="scale(1 1) rotate(0) translate(4 667)">
<title>Tree</title>
<polygon fill="white" stroke="transparent" points="-4,4 -4,-667 1672.5,-667 1672.5,4 -4,4"/>
<!-- 0 -->
<g id="node1" class="node">
<title>0</title>
<path fill="#e5823b" stroke="black" d="M1369.5,-663C1369.5,-663 1181.5,-663 1181.5,-663 1175.5,-663 1169.5,-657 1169.5,-651 1169.5,-651 1169.5,-592 1169.5,-592 1169.5,-586 1175.5,-580 1181.5,-580 1181.5,-580 1369.5,-580 1369.5,-580 1375.5,-580 1381.5,-586 1381.5,-592 1381.5,-592 1381.5,-651 1381.5,-651 1381.5,-657 1375.5,-663 1369.5,-663"/>
<text text-anchor="middle" x="1275.5" y="-647.8" font-family="Helvetica,sans-Serif" font-size="14.00">autor_SP3RFBITENCO &lt;= 0.5</text>
<text text-anchor="middle" x="1275.5" y="-632.8" font-family="Helvetica,sans-Serif" font-size="14.00">gini = 0.015</text>
<text text-anchor="middle" x="1275.5" y="-617.8" font-family="Helvetica,sans-Serif" font-size="14.00">samples = 164340</text>
<text text-anchor="middle" x="1275.5" y="-602.8" font-family="Helvetica,sans-Serif" font-size="14.00">value = [163058, 1282]</text>
<text text-anchor="middle" x="1275.5" y="-587.8" font-family="Helvetica,sans-Serif" font-size="14.00">class = não</text>
</g>
<!-- 1 -->
<g id="node2" class="node">
<title>1</title>
<path fill="#e5823b" stroke="black" d="M1176.5,-544C1176.5,-544 1008.5,-544 1008.5,-544 1002.5,-544 996.5,-538 996.5,-532 996.5,-532 996.5,-473 996.5,-473 996.5,-467 1002.5,-461 1008.5,-461 1008.5,-461 1176.5,-461 1176.5,-461 1182.5,-461 1188.5,-467 1188.5,-473 1188.5,-473 1188.5,-532 1188.5,-532 1188.5,-538 1182.5,-544 1176.5,-544"/>
<text text-anchor="middle" x="1092.5" y="-528.8" font-family="Helvetica,sans-Serif" font-size="14.00">autor_SP3DJUNIOR &lt;= 0.5</text>
<text text-anchor="middle" x="1092.5" y="-513.8" font-family="Helvetica,sans-Serif" font-size="14.00">gini = 0.015</text>
<text text-anchor="middle" x="1092.5" y="-498.8" font-family="Helvetica,sans-Serif" font-size="14.00">samples = 163804</text>
<text text-anchor="middle" x="1092.5" y="-483.8" font-family="Helvetica,sans-Serif" font-size="14.00">value = [162568, 1236]</text>
<text text-anchor="middle" x="1092.5" y="-468.8" font-family="Helvetica,sans-Serif" font-size="14.00">class = não</text>
</g>
<!-- 0&#45;&gt;1 -->
<g id="edge1" class="edge">
<title>0&#45;&gt;1</title>
<path fill="none" stroke="black" d="M1212.01,-579.91C1196.68,-570.11 1180.19,-559.56 1164.5,-549.53"/>
<polygon fill="black" stroke="black" points="1166.19,-546.46 1155.88,-544.02 1162.42,-552.36 1166.19,-546.46"/>
<text text-anchor="middle" x="1161.25" y="-564.74" font-family="Helvetica,sans-Serif" font-size="14.00">True</text>
</g>
<!-- 22 -->
<g id="node23" class="node">
<title>22</title>
<path fill="#e78d4c" stroke="black" d="M1517,-544C1517,-544 1332,-544 1332,-544 1326,-544 1320,-538 1320,-532 1320,-532 1320,-473 1320,-473 1320,-467 1326,-461 1332,-461 1332,-461 1517,-461 1517,-461 1523,-461 1529,-467 1529,-473 1529,-473 1529,-532 1529,-532 1529,-538 1523,-544 1517,-544"/>
<text text-anchor="middle" x="1424.5" y="-528.8" font-family="Helvetica,sans-Serif" font-size="14.00">nome_dia_semana_qui &lt;= 0.5</text>
<text text-anchor="middle" x="1424.5" y="-513.8" font-family="Helvetica,sans-Serif" font-size="14.00">gini = 0.157</text>
<text text-anchor="middle" x="1424.5" y="-498.8" font-family="Helvetica,sans-Serif" font-size="14.00">samples = 536</text>
<text text-anchor="middle" x="1424.5" y="-483.8" font-family="Helvetica,sans-Serif" font-size="14.00">value = [490, 46]</text>
<text text-anchor="middle" x="1424.5" y="-468.8" font-family="Helvetica,sans-Serif" font-size="14.00">class = não</text>
</g>
<!-- 0&#45;&gt;22 -->
<g id="edge22" class="edge">
<title>0&#45;&gt;22</title>
<path fill="none" stroke="black" d="M1327.19,-579.91C1339.33,-570.38 1352.36,-560.15 1364.81,-550.37"/>
<polygon fill="black" stroke="black" points="1367.19,-552.95 1372.9,-544.02 1362.87,-547.44 1367.19,-552.95"/>
<text text-anchor="middle" x="1369.91" y="-565.14" font-family="Helvetica,sans-Serif" font-size="14.00">False</text>
</g>
<!-- 2 -->
<g id="node3" class="node">
<title>2</title>
<path fill="#e5823a" stroke="black" d="M891.5,-425C891.5,-425 699.5,-425 699.5,-425 693.5,-425 687.5,-419 687.5,-413 687.5,-413 687.5,-354 687.5,-354 687.5,-348 693.5,-342 699.5,-342 699.5,-342 891.5,-342 891.5,-342 897.5,-342 903.5,-348 903.5,-354 903.5,-354 903.5,-413 903.5,-413 903.5,-419 897.5,-425 891.5,-425"/>
<text text-anchor="middle" x="795.5" y="-409.8" font-family="Helvetica,sans-Serif" font-size="14.00">autor_SP3JAGONCALV &lt;= 0.5</text>
<text text-anchor="middle" x="795.5" y="-394.8" font-family="Helvetica,sans-Serif" font-size="14.00">gini = 0.015</text>
<text text-anchor="middle" x="795.5" y="-379.8" font-family="Helvetica,sans-Serif" font-size="14.00">samples = 163002</text>
<text text-anchor="middle" x="795.5" y="-364.8" font-family="Helvetica,sans-Serif" font-size="14.00">value = [161802, 1200]</text>
<text text-anchor="middle" x="795.5" y="-349.8" font-family="Helvetica,sans-Serif" font-size="14.00">class = não</text>
</g>
<!-- 1&#45;&gt;2 -->
<g id="edge2" class="edge">
<title>1&#45;&gt;2</title>
<path fill="none" stroke="black" d="M996.48,-463.68C968.19,-452.53 936.98,-440.24 907.77,-428.73"/>
<polygon fill="black" stroke="black" points="908.95,-425.43 898.36,-425.02 906.38,-431.94 908.95,-425.43"/>
</g>
<!-- 15 -->
<g id="node16" class="node">
<title>15</title>
<path fill="#e68742" stroke="black" d="M1190,-425C1190,-425 995,-425 995,-425 989,-425 983,-419 983,-413 983,-413 983,-354 983,-354 983,-348 989,-342 995,-342 995,-342 1190,-342 1190,-342 1196,-342 1202,-348 1202,-354 1202,-354 1202,-413 1202,-413 1202,-419 1196,-425 1190,-425"/>
<text text-anchor="middle" x="1092.5" y="-409.8" font-family="Helvetica,sans-Serif" font-size="14.00">nome_dia_semana_dom &lt;= 0.5</text>
<text text-anchor="middle" x="1092.5" y="-394.8" font-family="Helvetica,sans-Serif" font-size="14.00">gini = 0.086</text>
<text text-anchor="middle" x="1092.5" y="-379.8" font-family="Helvetica,sans-Serif" font-size="14.00">samples = 802</text>
<text text-anchor="middle" x="1092.5" y="-364.8" font-family="Helvetica,sans-Serif" font-size="14.00">value = [766, 36]</text>
<text text-anchor="middle" x="1092.5" y="-349.8" font-family="Helvetica,sans-Serif" font-size="14.00">class = não</text>
</g>
<!-- 1&#45;&gt;15 -->
<g id="edge15" class="edge">
<title>1&#45;&gt;15</title>
<path fill="none" stroke="black" d="M1092.5,-460.91C1092.5,-452.65 1092.5,-443.86 1092.5,-435.3"/>
<polygon fill="black" stroke="black" points="1096,-435.02 1092.5,-425.02 1089,-435.02 1096,-435.02"/>
</g>
<!-- 3 -->
<g id="node4" class="node">
<title>3</title>
<path fill="#e5823a" stroke="black" d="M558,-306C558,-306 367,-306 367,-306 361,-306 355,-300 355,-294 355,-294 355,-235 355,-235 355,-229 361,-223 367,-223 367,-223 558,-223 558,-223 564,-223 570,-229 570,-235 570,-235 570,-294 570,-294 570,-300 564,-306 558,-306"/>
<text text-anchor="middle" x="462.5" y="-290.8" font-family="Helvetica,sans-Serif" font-size="14.00">autor_SP3MSNASCIME &lt;= 0.5</text>
<text text-anchor="middle" x="462.5" y="-275.8" font-family="Helvetica,sans-Serif" font-size="14.00">gini = 0.014</text>
<text text-anchor="middle" x="462.5" y="-260.8" font-family="Helvetica,sans-Serif" font-size="14.00">samples = 162597</text>
<text text-anchor="middle" x="462.5" y="-245.8" font-family="Helvetica,sans-Serif" font-size="14.00">value = [161420, 1177]</text>
<text text-anchor="middle" x="462.5" y="-230.8" font-family="Helvetica,sans-Serif" font-size="14.00">class = não</text>
</g>
<!-- 2&#45;&gt;3 -->
<g id="edge3" class="edge">
<title>2&#45;&gt;3</title>
<path fill="none" stroke="black" d="M687.38,-344.51C653.01,-332.44 614.84,-319.03 579.85,-306.73"/>
<polygon fill="black" stroke="black" points="580.67,-303.31 570.07,-303.3 578.35,-309.91 580.67,-303.31"/>
</g>
<!-- 10 -->
<g id="node11" class="node">
<title>10</title>
<path fill="#e78945" stroke="black" d="M887,-306C887,-306 704,-306 704,-306 698,-306 692,-300 692,-294 692,-294 692,-235 692,-235 692,-229 698,-223 704,-223 704,-223 887,-223 887,-223 893,-223 899,-229 899,-235 899,-235 899,-294 899,-294 899,-300 893,-306 887,-306"/>
<text text-anchor="middle" x="795.5" y="-290.8" font-family="Helvetica,sans-Serif" font-size="14.00">nome_dia_semana_ter &lt;= 0.5</text>
<text text-anchor="middle" x="795.5" y="-275.8" font-family="Helvetica,sans-Serif" font-size="14.00">gini = 0.107</text>
<text text-anchor="middle" x="795.5" y="-260.8" font-family="Helvetica,sans-Serif" font-size="14.00">samples = 405</text>
<text text-anchor="middle" x="795.5" y="-245.8" font-family="Helvetica,sans-Serif" font-size="14.00">value = [382, 23]</text>
<text text-anchor="middle" x="795.5" y="-230.8" font-family="Helvetica,sans-Serif" font-size="14.00">class = não</text>
</g>
<!-- 2&#45;&gt;10 -->
<g id="edge10" class="edge">
<title>2&#45;&gt;10</title>
<path fill="none" stroke="black" d="M795.5,-341.91C795.5,-333.65 795.5,-324.86 795.5,-316.3"/>
<polygon fill="black" stroke="black" points="799,-316.02 795.5,-306.02 792,-316.02 799,-316.02"/>
</g>
<!-- 4 -->
<g id="node5" class="node">
<title>4</title>
<path fill="#e5823a" stroke="black" d="M323,-187C323,-187 130,-187 130,-187 124,-187 118,-181 118,-175 118,-175 118,-116 118,-116 118,-110 124,-104 130,-104 130,-104 323,-104 323,-104 329,-104 335,-110 335,-116 335,-116 335,-175 335,-175 335,-181 329,-187 323,-187"/>
<text text-anchor="middle" x="226.5" y="-171.8" font-family="Helvetica,sans-Serif" font-size="14.00">autor_SP3CECARVALH &lt;= 0.5</text>
<text text-anchor="middle" x="226.5" y="-156.8" font-family="Helvetica,sans-Serif" font-size="14.00">gini = 0.013</text>
<text text-anchor="middle" x="226.5" y="-141.8" font-family="Helvetica,sans-Serif" font-size="14.00">samples = 153243</text>
<text text-anchor="middle" x="226.5" y="-126.8" font-family="Helvetica,sans-Serif" font-size="14.00">value = [152209, 1034]</text>
<text text-anchor="middle" x="226.5" y="-111.8" font-family="Helvetica,sans-Serif" font-size="14.00">class = não</text>
</g>
<!-- 3&#45;&gt;4 -->
<g id="edge4" class="edge">
<title>3&#45;&gt;4</title>
<path fill="none" stroke="black" d="M380.62,-222.91C360.21,-212.79 338.2,-201.88 317.39,-191.56"/>
<polygon fill="black" stroke="black" points="318.75,-188.33 308.23,-187.02 315.64,-194.6 318.75,-188.33"/>
</g>
<!-- 7 -->
<g id="node8" class="node">
<title>7</title>
<path fill="#e5833c" stroke="black" d="M560,-187C560,-187 365,-187 365,-187 359,-187 353,-181 353,-175 353,-175 353,-116 353,-116 353,-110 359,-104 365,-104 365,-104 560,-104 560,-104 566,-104 572,-110 572,-116 572,-116 572,-175 572,-175 572,-181 566,-187 560,-187"/>
<text text-anchor="middle" x="462.5" y="-171.8" font-family="Helvetica,sans-Serif" font-size="14.00">nome_dia_semana_dom &lt;= 0.5</text>
<text text-anchor="middle" x="462.5" y="-156.8" font-family="Helvetica,sans-Serif" font-size="14.00">gini = 0.03</text>
<text text-anchor="middle" x="462.5" y="-141.8" font-family="Helvetica,sans-Serif" font-size="14.00">samples = 9354</text>
<text text-anchor="middle" x="462.5" y="-126.8" font-family="Helvetica,sans-Serif" font-size="14.00">value = [9211, 143]</text>
<text text-anchor="middle" x="462.5" y="-111.8" font-family="Helvetica,sans-Serif" font-size="14.00">class = não</text>
</g>
<!-- 3&#45;&gt;7 -->
<g id="edge7" class="edge">
<title>3&#45;&gt;7</title>
<path fill="none" stroke="black" d="M462.5,-222.91C462.5,-214.65 462.5,-205.86 462.5,-197.3"/>
<polygon fill="black" stroke="black" points="466,-197.02 462.5,-187.02 459,-197.02 466,-197.02"/>
</g>
<!-- 5 -->
<g id="node6" class="node">
<title>5</title>
<path fill="#e5823a" stroke="black" d="M151,-68C151,-68 12,-68 12,-68 6,-68 0,-62 0,-56 0,-56 0,-12 0,-12 0,-6 6,0 12,0 12,0 151,0 151,0 157,0 163,-6 163,-12 163,-12 163,-56 163,-56 163,-62 157,-68 151,-68"/>
<text text-anchor="middle" x="81.5" y="-52.8" font-family="Helvetica,sans-Serif" font-size="14.00">gini = 0.013</text>
<text text-anchor="middle" x="81.5" y="-37.8" font-family="Helvetica,sans-Serif" font-size="14.00">samples = 153181</text>
<text text-anchor="middle" x="81.5" y="-22.8" font-family="Helvetica,sans-Serif" font-size="14.00">value = [152153, 1028]</text>
<text text-anchor="middle" x="81.5" y="-7.8" font-family="Helvetica,sans-Serif" font-size="14.00">class = não</text>
</g>
<!-- 4&#45;&gt;5 -->
<g id="edge5" class="edge">
<title>4&#45;&gt;5</title>
<path fill="none" stroke="black" d="M172.51,-103.73C159.83,-94.15 146.33,-83.96 133.73,-74.44"/>
<polygon fill="black" stroke="black" points="135.68,-71.53 125.6,-68.3 131.47,-77.12 135.68,-71.53"/>
</g>
<!-- 6 -->
<g id="node7" class="node">
<title>6</title>
<path fill="#e88e4e" stroke="black" d="M274,-68C274,-68 193,-68 193,-68 187,-68 181,-62 181,-56 181,-56 181,-12 181,-12 181,-6 187,0 193,0 193,0 274,0 274,0 280,0 286,-6 286,-12 286,-12 286,-56 286,-56 286,-62 280,-68 274,-68"/>
<text text-anchor="middle" x="233.5" y="-52.8" font-family="Helvetica,sans-Serif" font-size="14.00">gini = 0.175</text>
<text text-anchor="middle" x="233.5" y="-37.8" font-family="Helvetica,sans-Serif" font-size="14.00">samples = 62</text>
<text text-anchor="middle" x="233.5" y="-22.8" font-family="Helvetica,sans-Serif" font-size="14.00">value = [56, 6]</text>
<text text-anchor="middle" x="233.5" y="-7.8" font-family="Helvetica,sans-Serif" font-size="14.00">class = não</text>
</g>
<!-- 4&#45;&gt;6 -->
<g id="edge6" class="edge">
<title>4&#45;&gt;6</title>
<path fill="none" stroke="black" d="M229.11,-103.73C229.64,-95.43 230.2,-86.67 230.73,-78.28"/>
<polygon fill="black" stroke="black" points="234.23,-78.5 231.37,-68.3 227.24,-78.06 234.23,-78.5"/>
</g>
<!-- 8 -->
<g id="node9" class="node">
<title>8</title>
<path fill="#e5823b" stroke="black" d="M448.5,-68C448.5,-68 342.5,-68 342.5,-68 336.5,-68 330.5,-62 330.5,-56 330.5,-56 330.5,-12 330.5,-12 330.5,-6 336.5,0 342.5,0 342.5,0 448.5,0 448.5,0 454.5,0 460.5,-6 460.5,-12 460.5,-12 460.5,-56 460.5,-56 460.5,-62 454.5,-68 448.5,-68"/>
<text text-anchor="middle" x="395.5" y="-52.8" font-family="Helvetica,sans-Serif" font-size="14.00">gini = 0.021</text>
<text text-anchor="middle" x="395.5" y="-37.8" font-family="Helvetica,sans-Serif" font-size="14.00">samples = 8891</text>
<text text-anchor="middle" x="395.5" y="-22.8" font-family="Helvetica,sans-Serif" font-size="14.00">value = [8798, 93]</text>
<text text-anchor="middle" x="395.5" y="-7.8" font-family="Helvetica,sans-Serif" font-size="14.00">class = não</text>
</g>
<!-- 7&#45;&gt;8 -->
<g id="edge8" class="edge">
<title>7&#45;&gt;8</title>
<path fill="none" stroke="black" d="M437.55,-103.73C432.19,-94.97 426.52,-85.7 421.14,-76.91"/>
<polygon fill="black" stroke="black" points="424.08,-75 415.88,-68.3 418.11,-78.66 424.08,-75"/>
</g>
<!-- 9 -->
<g id="node10" class="node">
<title>9</title>
<path fill="#e89051" stroke="black" d="M588.5,-68C588.5,-68 490.5,-68 490.5,-68 484.5,-68 478.5,-62 478.5,-56 478.5,-56 478.5,-12 478.5,-12 478.5,-6 484.5,0 490.5,0 490.5,0 588.5,0 588.5,0 594.5,0 600.5,-6 600.5,-12 600.5,-12 600.5,-56 600.5,-56 600.5,-62 594.5,-68 588.5,-68"/>
<text text-anchor="middle" x="539.5" y="-52.8" font-family="Helvetica,sans-Serif" font-size="14.00">gini = 0.193</text>
<text text-anchor="middle" x="539.5" y="-37.8" font-family="Helvetica,sans-Serif" font-size="14.00">samples = 463</text>
<text text-anchor="middle" x="539.5" y="-22.8" font-family="Helvetica,sans-Serif" font-size="14.00">value = [413, 50]</text>
<text text-anchor="middle" x="539.5" y="-7.8" font-family="Helvetica,sans-Serif" font-size="14.00">class = não</text>
</g>
<!-- 7&#45;&gt;9 -->
<g id="edge9" class="edge">
<title>7&#45;&gt;9</title>
<path fill="none" stroke="black" d="M491.17,-103.73C497.39,-94.88 503.98,-85.51 510.23,-76.63"/>
<polygon fill="black" stroke="black" points="513.19,-78.49 516.08,-68.3 507.47,-74.47 513.19,-78.49"/>
</g>
<!-- 11 -->
<g id="node12" class="node">
<title>11</title>
<path fill="#e68743" stroke="black" d="M797,-187C797,-187 602,-187 602,-187 596,-187 590,-181 590,-175 590,-175 590,-116 590,-116 590,-110 596,-104 602,-104 602,-104 797,-104 797,-104 803,-104 809,-110 809,-116 809,-116 809,-175 809,-175 809,-181 803,-187 797,-187"/>
<text text-anchor="middle" x="699.5" y="-171.8" font-family="Helvetica,sans-Serif" font-size="14.00">nome_dia_semana_dom &lt;= 0.5</text>
<text text-anchor="middle" x="699.5" y="-156.8" font-family="Helvetica,sans-Serif" font-size="14.00">gini = 0.089</text>
<text text-anchor="middle" x="699.5" y="-141.8" font-family="Helvetica,sans-Serif" font-size="14.00">samples = 363</text>
<text text-anchor="middle" x="699.5" y="-126.8" font-family="Helvetica,sans-Serif" font-size="14.00">value = [346, 17]</text>
<text text-anchor="middle" x="699.5" y="-111.8" font-family="Helvetica,sans-Serif" font-size="14.00">class = não</text>
</g>
<!-- 10&#45;&gt;11 -->
<g id="edge11" class="edge">
<title>10&#45;&gt;11</title>
<path fill="none" stroke="black" d="M762.19,-222.91C754.75,-213.83 746.78,-204.12 739.11,-194.77"/>
<polygon fill="black" stroke="black" points="741.8,-192.53 732.75,-187.02 736.39,-196.97 741.8,-192.53"/>
</g>
<!-- 14 -->
<g id="node15" class="node">
<title>14</title>
<path fill="#e9965a" stroke="black" d="M920,-179.5C920,-179.5 839,-179.5 839,-179.5 833,-179.5 827,-173.5 827,-167.5 827,-167.5 827,-123.5 827,-123.5 827,-117.5 833,-111.5 839,-111.5 839,-111.5 920,-111.5 920,-111.5 926,-111.5 932,-117.5 932,-123.5 932,-123.5 932,-167.5 932,-167.5 932,-173.5 926,-179.5 920,-179.5"/>
<text text-anchor="middle" x="879.5" y="-164.3" font-family="Helvetica,sans-Serif" font-size="14.00">gini = 0.245</text>
<text text-anchor="middle" x="879.5" y="-149.3" font-family="Helvetica,sans-Serif" font-size="14.00">samples = 42</text>
<text text-anchor="middle" x="879.5" y="-134.3" font-family="Helvetica,sans-Serif" font-size="14.00">value = [36, 6]</text>
<text text-anchor="middle" x="879.5" y="-119.3" font-family="Helvetica,sans-Serif" font-size="14.00">class = não</text>
</g>
<!-- 10&#45;&gt;14 -->
<g id="edge14" class="edge">
<title>10&#45;&gt;14</title>
<path fill="none" stroke="black" d="M824.64,-222.91C832.72,-211.65 841.51,-199.42 849.63,-188.11"/>
<polygon fill="black" stroke="black" points="852.7,-189.83 855.69,-179.67 847.01,-185.75 852.7,-189.83"/>
</g>
<!-- 12 -->
<g id="node13" class="node">
<title>12</title>
<path fill="#e68844" stroke="black" d="M741.5,-68C741.5,-68 643.5,-68 643.5,-68 637.5,-68 631.5,-62 631.5,-56 631.5,-56 631.5,-12 631.5,-12 631.5,-6 637.5,0 643.5,0 643.5,0 741.5,0 741.5,0 747.5,0 753.5,-6 753.5,-12 753.5,-12 753.5,-56 753.5,-56 753.5,-62 747.5,-68 741.5,-68"/>
<text text-anchor="middle" x="692.5" y="-52.8" font-family="Helvetica,sans-Serif" font-size="14.00">gini = 0.097</text>
<text text-anchor="middle" x="692.5" y="-37.8" font-family="Helvetica,sans-Serif" font-size="14.00">samples = 334</text>
<text text-anchor="middle" x="692.5" y="-22.8" font-family="Helvetica,sans-Serif" font-size="14.00">value = [317, 17]</text>
<text text-anchor="middle" x="692.5" y="-7.8" font-family="Helvetica,sans-Serif" font-size="14.00">class = não</text>
</g>
<!-- 11&#45;&gt;12 -->
<g id="edge12" class="edge">
<title>11&#45;&gt;12</title>
<path fill="none" stroke="black" d="M696.89,-103.73C696.36,-95.43 695.8,-86.67 695.27,-78.28"/>
<polygon fill="black" stroke="black" points="698.76,-78.06 694.63,-68.3 691.77,-78.5 698.76,-78.06"/>
</g>
<!-- 13 -->
<g id="node14" class="node">
<title>13</title>
<path fill="#e58139" stroke="black" d="M865,-68C865,-68 784,-68 784,-68 778,-68 772,-62 772,-56 772,-56 772,-12 772,-12 772,-6 778,0 784,0 784,0 865,0 865,0 871,0 877,-6 877,-12 877,-12 877,-56 877,-56 877,-62 871,-68 865,-68"/>
<text text-anchor="middle" x="824.5" y="-52.8" font-family="Helvetica,sans-Serif" font-size="14.00">gini = 0.0</text>
<text text-anchor="middle" x="824.5" y="-37.8" font-family="Helvetica,sans-Serif" font-size="14.00">samples = 29</text>
<text text-anchor="middle" x="824.5" y="-22.8" font-family="Helvetica,sans-Serif" font-size="14.00">value = [29, 0]</text>
<text text-anchor="middle" x="824.5" y="-7.8" font-family="Helvetica,sans-Serif" font-size="14.00">class = não</text>
</g>
<!-- 11&#45;&gt;13 -->
<g id="edge13" class="edge">
<title>11&#45;&gt;13</title>
<path fill="none" stroke="black" d="M746.05,-103.73C756.77,-94.33 768.17,-84.35 778.85,-74.99"/>
<polygon fill="black" stroke="black" points="781.27,-77.52 786.49,-68.3 776.66,-72.26 781.27,-77.52"/>
</g>
<!-- 16 -->
<g id="node17" class="node">
<title>16</title>
<path fill="#f3c3a1" stroke="black" d="M1150,-306C1150,-306 965,-306 965,-306 959,-306 953,-300 953,-294 953,-294 953,-235 953,-235 953,-229 959,-223 965,-223 965,-223 1150,-223 1150,-223 1156,-223 1162,-229 1162,-235 1162,-235 1162,-294 1162,-294 1162,-300 1156,-306 1150,-306"/>
<text text-anchor="middle" x="1057.5" y="-290.8" font-family="Helvetica,sans-Serif" font-size="14.00">nome_dia_semana_qui &lt;= 0.5</text>
<text text-anchor="middle" x="1057.5" y="-275.8" font-family="Helvetica,sans-Serif" font-size="14.00">gini = 0.451</text>
<text text-anchor="middle" x="1057.5" y="-260.8" font-family="Helvetica,sans-Serif" font-size="14.00">samples = 61</text>
<text text-anchor="middle" x="1057.5" y="-245.8" font-family="Helvetica,sans-Serif" font-size="14.00">value = [40, 21]</text>
<text text-anchor="middle" x="1057.5" y="-230.8" font-family="Helvetica,sans-Serif" font-size="14.00">class = não</text>
</g>
<!-- 15&#45;&gt;16 -->
<g id="edge16" class="edge">
<title>15&#45;&gt;16</title>
<path fill="none" stroke="black" d="M1080.36,-341.91C1077.83,-333.47 1075.14,-324.48 1072.53,-315.74"/>
<polygon fill="black" stroke="black" points="1075.84,-314.6 1069.62,-306.02 1069.13,-316.6 1075.84,-314.6"/>
</g>
<!-- 21 -->
<g id="node22" class="node">
<title>21</title>
<path fill="#e6843d" stroke="black" d="M1290.5,-298.5C1290.5,-298.5 1192.5,-298.5 1192.5,-298.5 1186.5,-298.5 1180.5,-292.5 1180.5,-286.5 1180.5,-286.5 1180.5,-242.5 1180.5,-242.5 1180.5,-236.5 1186.5,-230.5 1192.5,-230.5 1192.5,-230.5 1290.5,-230.5 1290.5,-230.5 1296.5,-230.5 1302.5,-236.5 1302.5,-242.5 1302.5,-242.5 1302.5,-286.5 1302.5,-286.5 1302.5,-292.5 1296.5,-298.5 1290.5,-298.5"/>
<text text-anchor="middle" x="1241.5" y="-283.3" font-family="Helvetica,sans-Serif" font-size="14.00">gini = 0.04</text>
<text text-anchor="middle" x="1241.5" y="-268.3" font-family="Helvetica,sans-Serif" font-size="14.00">samples = 741</text>
<text text-anchor="middle" x="1241.5" y="-253.3" font-family="Helvetica,sans-Serif" font-size="14.00">value = [726, 15]</text>
<text text-anchor="middle" x="1241.5" y="-238.3" font-family="Helvetica,sans-Serif" font-size="14.00">class = não</text>
</g>
<!-- 15&#45;&gt;21 -->
<g id="edge21" class="edge">
<title>15&#45;&gt;21</title>
<path fill="none" stroke="black" d="M1144.19,-341.91C1159.37,-329.99 1175.95,-316.98 1191.04,-305.12"/>
<polygon fill="black" stroke="black" points="1193.56,-307.6 1199.26,-298.67 1189.24,-302.09 1193.56,-307.6"/>
</g>
<!-- 17 -->
<g id="node18" class="node">
<title>17</title>
<path fill="#9ccef2" stroke="black" d="M1152.5,-187C1152.5,-187 962.5,-187 962.5,-187 956.5,-187 950.5,-181 950.5,-175 950.5,-175 950.5,-116 950.5,-116 950.5,-110 956.5,-104 962.5,-104 962.5,-104 1152.5,-104 1152.5,-104 1158.5,-104 1164.5,-110 1164.5,-116 1164.5,-116 1164.5,-175 1164.5,-175 1164.5,-181 1158.5,-187 1152.5,-187"/>
<text text-anchor="middle" x="1057.5" y="-171.8" font-family="Helvetica,sans-Serif" font-size="14.00">nome_dia_semana_qua &lt;= 0.5</text>
<text text-anchor="middle" x="1057.5" y="-156.8" font-family="Helvetica,sans-Serif" font-size="14.00">gini = 0.444</text>
<text text-anchor="middle" x="1057.5" y="-141.8" font-family="Helvetica,sans-Serif" font-size="14.00">samples = 9</text>
<text text-anchor="middle" x="1057.5" y="-126.8" font-family="Helvetica,sans-Serif" font-size="14.00">value = [3, 6]</text>
<text text-anchor="middle" x="1057.5" y="-111.8" font-family="Helvetica,sans-Serif" font-size="14.00">class = sim</text>
</g>
<!-- 16&#45;&gt;17 -->
<g id="edge17" class="edge">
<title>16&#45;&gt;17</title>
<path fill="none" stroke="black" d="M1057.5,-222.91C1057.5,-214.65 1057.5,-205.86 1057.5,-197.3"/>
<polygon fill="black" stroke="black" points="1061,-197.02 1057.5,-187.02 1054,-197.02 1061,-197.02"/>
</g>
<!-- 20 -->
<g id="node21" class="node">
<title>20</title>
<path fill="#f0b489" stroke="black" d="M1284,-179.5C1284,-179.5 1195,-179.5 1195,-179.5 1189,-179.5 1183,-173.5 1183,-167.5 1183,-167.5 1183,-123.5 1183,-123.5 1183,-117.5 1189,-111.5 1195,-111.5 1195,-111.5 1284,-111.5 1284,-111.5 1290,-111.5 1296,-117.5 1296,-123.5 1296,-123.5 1296,-167.5 1296,-167.5 1296,-173.5 1290,-179.5 1284,-179.5"/>
<text text-anchor="middle" x="1239.5" y="-164.3" font-family="Helvetica,sans-Serif" font-size="14.00">gini = 0.411</text>
<text text-anchor="middle" x="1239.5" y="-149.3" font-family="Helvetica,sans-Serif" font-size="14.00">samples = 52</text>
<text text-anchor="middle" x="1239.5" y="-134.3" font-family="Helvetica,sans-Serif" font-size="14.00">value = [37, 15]</text>
<text text-anchor="middle" x="1239.5" y="-119.3" font-family="Helvetica,sans-Serif" font-size="14.00">class = não</text>
</g>
<!-- 16&#45;&gt;20 -->
<g id="edge20" class="edge">
<title>16&#45;&gt;20</title>
<path fill="none" stroke="black" d="M1120.64,-222.91C1139.7,-210.66 1160.55,-197.25 1179.4,-185.13"/>
<polygon fill="black" stroke="black" points="1181.39,-188.02 1187.91,-179.67 1177.6,-182.13 1181.39,-188.02"/>
</g>
<!-- 18 -->
<g id="node19" class="node">
<title>18</title>
<path fill="#b0d8f5" stroke="black" d="M1041,-68C1041,-68 968,-68 968,-68 962,-68 956,-62 956,-56 956,-56 956,-12 956,-12 956,-6 962,0 968,0 968,0 1041,0 1041,0 1047,0 1053,-6 1053,-12 1053,-12 1053,-56 1053,-56 1053,-62 1047,-68 1041,-68"/>
<text text-anchor="middle" x="1004.5" y="-52.8" font-family="Helvetica,sans-Serif" font-size="14.00">gini = 0.469</text>
<text text-anchor="middle" x="1004.5" y="-37.8" font-family="Helvetica,sans-Serif" font-size="14.00">samples = 8</text>
<text text-anchor="middle" x="1004.5" y="-22.8" font-family="Helvetica,sans-Serif" font-size="14.00">value = [3, 5]</text>
<text text-anchor="middle" x="1004.5" y="-7.8" font-family="Helvetica,sans-Serif" font-size="14.00">class = sim</text>
</g>
<!-- 17&#45;&gt;18 -->
<g id="edge18" class="edge">
<title>17&#45;&gt;18</title>
<path fill="none" stroke="black" d="M1037.76,-103.73C1033.61,-95.15 1029.23,-86.09 1025.05,-77.46"/>
<polygon fill="black" stroke="black" points="1028.12,-75.78 1020.62,-68.3 1021.82,-78.83 1028.12,-75.78"/>
</g>
<!-- 19 -->
<g id="node20" class="node">
<title>19</title>
<path fill="#399de5" stroke="black" d="M1156,-68C1156,-68 1083,-68 1083,-68 1077,-68 1071,-62 1071,-56 1071,-56 1071,-12 1071,-12 1071,-6 1077,0 1083,0 1083,0 1156,0 1156,0 1162,0 1168,-6 1168,-12 1168,-12 1168,-56 1168,-56 1168,-62 1162,-68 1156,-68"/>
<text text-anchor="middle" x="1119.5" y="-52.8" font-family="Helvetica,sans-Serif" font-size="14.00">gini = 0.0</text>
<text text-anchor="middle" x="1119.5" y="-37.8" font-family="Helvetica,sans-Serif" font-size="14.00">samples = 1</text>
<text text-anchor="middle" x="1119.5" y="-22.8" font-family="Helvetica,sans-Serif" font-size="14.00">value = [0, 1]</text>
<text text-anchor="middle" x="1119.5" y="-7.8" font-family="Helvetica,sans-Serif" font-size="14.00">class = sim</text>
</g>
<!-- 17&#45;&gt;19 -->
<g id="edge19" class="edge">
<title>17&#45;&gt;19</title>
<path fill="none" stroke="black" d="M1080.59,-103.73C1085.49,-95.06 1090.68,-85.9 1095.62,-77.18"/>
<polygon fill="black" stroke="black" points="1098.76,-78.73 1100.65,-68.3 1092.67,-75.28 1098.76,-78.73"/>
</g>
<!-- 23 -->
<g id="node24" class="node">
<title>23</title>
<path fill="#e68844" stroke="black" d="M1520,-425C1520,-425 1329,-425 1329,-425 1323,-425 1317,-419 1317,-413 1317,-413 1317,-354 1317,-354 1317,-348 1323,-342 1329,-342 1329,-342 1520,-342 1520,-342 1526,-342 1532,-348 1532,-354 1532,-354 1532,-413 1532,-413 1532,-419 1526,-425 1520,-425"/>
<text text-anchor="middle" x="1424.5" y="-409.8" font-family="Helvetica,sans-Serif" font-size="14.00">nome_dia_semana_seg &lt;= 0.5</text>
<text text-anchor="middle" x="1424.5" y="-394.8" font-family="Helvetica,sans-Serif" font-size="14.00">gini = 0.097</text>
<text text-anchor="middle" x="1424.5" y="-379.8" font-family="Helvetica,sans-Serif" font-size="14.00">samples = 412</text>
<text text-anchor="middle" x="1424.5" y="-364.8" font-family="Helvetica,sans-Serif" font-size="14.00">value = [391, 21]</text>
<text text-anchor="middle" x="1424.5" y="-349.8" font-family="Helvetica,sans-Serif" font-size="14.00">class = não</text>
</g>
<!-- 22&#45;&gt;23 -->
<g id="edge23" class="edge">
<title>22&#45;&gt;23</title>
<path fill="none" stroke="black" d="M1424.5,-460.91C1424.5,-452.65 1424.5,-443.86 1424.5,-435.3"/>
<polygon fill="black" stroke="black" points="1428,-435.02 1424.5,-425.02 1421,-435.02 1428,-435.02"/>
</g>
<!-- 30 -->
<g id="node31" class="node">
<title>30</title>
<path fill="#eca16b" stroke="black" d="M1651,-417.5C1651,-417.5 1562,-417.5 1562,-417.5 1556,-417.5 1550,-411.5 1550,-405.5 1550,-405.5 1550,-361.5 1550,-361.5 1550,-355.5 1556,-349.5 1562,-349.5 1562,-349.5 1651,-349.5 1651,-349.5 1657,-349.5 1663,-355.5 1663,-361.5 1663,-361.5 1663,-405.5 1663,-405.5 1663,-411.5 1657,-417.5 1651,-417.5"/>
<text text-anchor="middle" x="1606.5" y="-402.3" font-family="Helvetica,sans-Serif" font-size="14.00">gini = 0.322</text>
<text text-anchor="middle" x="1606.5" y="-387.3" font-family="Helvetica,sans-Serif" font-size="14.00">samples = 124</text>
<text text-anchor="middle" x="1606.5" y="-372.3" font-family="Helvetica,sans-Serif" font-size="14.00">value = [99, 25]</text>
<text text-anchor="middle" x="1606.5" y="-357.3" font-family="Helvetica,sans-Serif" font-size="14.00">class = não</text>
</g>
<!-- 22&#45;&gt;30 -->
<g id="edge30" class="edge">
<title>22&#45;&gt;30</title>
<path fill="none" stroke="black" d="M1487.64,-460.91C1506.7,-448.66 1527.55,-435.25 1546.4,-423.13"/>
<polygon fill="black" stroke="black" points="1548.39,-426.02 1554.91,-417.67 1544.6,-420.13 1548.39,-426.02"/>
</g>
<!-- 24 -->
<g id="node25" class="node">
<title>24</title>
<path fill="#e6853f" stroke="black" d="M1516,-306C1516,-306 1333,-306 1333,-306 1327,-306 1321,-300 1321,-294 1321,-294 1321,-235 1321,-235 1321,-229 1327,-223 1333,-223 1333,-223 1516,-223 1516,-223 1522,-223 1528,-229 1528,-235 1528,-235 1528,-294 1528,-294 1528,-300 1522,-306 1516,-306"/>
<text text-anchor="middle" x="1424.5" y="-290.8" font-family="Helvetica,sans-Serif" font-size="14.00">nome_dia_semana_ter &lt;= 0.5</text>
<text text-anchor="middle" x="1424.5" y="-275.8" font-family="Helvetica,sans-Serif" font-size="14.00">gini = 0.054</text>
<text text-anchor="middle" x="1424.5" y="-260.8" font-family="Helvetica,sans-Serif" font-size="14.00">samples = 287</text>
<text text-anchor="middle" x="1424.5" y="-245.8" font-family="Helvetica,sans-Serif" font-size="14.00">value = [279, 8]</text>
<text text-anchor="middle" x="1424.5" y="-230.8" font-family="Helvetica,sans-Serif" font-size="14.00">class = não</text>
</g>
<!-- 23&#45;&gt;24 -->
<g id="edge24" class="edge">
<title>23&#45;&gt;24</title>
<path fill="none" stroke="black" d="M1424.5,-341.91C1424.5,-333.65 1424.5,-324.86 1424.5,-316.3"/>
<polygon fill="black" stroke="black" points="1428,-316.02 1424.5,-306.02 1421,-316.02 1428,-316.02"/>
</g>
<!-- 29 -->
<g id="node30" class="node">
<title>29</title>
<path fill="#e89050" stroke="black" d="M1656.5,-298.5C1656.5,-298.5 1558.5,-298.5 1558.5,-298.5 1552.5,-298.5 1546.5,-292.5 1546.5,-286.5 1546.5,-286.5 1546.5,-242.5 1546.5,-242.5 1546.5,-236.5 1552.5,-230.5 1558.5,-230.5 1558.5,-230.5 1656.5,-230.5 1656.5,-230.5 1662.5,-230.5 1668.5,-236.5 1668.5,-242.5 1668.5,-242.5 1668.5,-286.5 1668.5,-286.5 1668.5,-292.5 1662.5,-298.5 1656.5,-298.5"/>
<text text-anchor="middle" x="1607.5" y="-283.3" font-family="Helvetica,sans-Serif" font-size="14.00">gini = 0.186</text>
<text text-anchor="middle" x="1607.5" y="-268.3" font-family="Helvetica,sans-Serif" font-size="14.00">samples = 125</text>
<text text-anchor="middle" x="1607.5" y="-253.3" font-family="Helvetica,sans-Serif" font-size="14.00">value = [112, 13]</text>
<text text-anchor="middle" x="1607.5" y="-238.3" font-family="Helvetica,sans-Serif" font-size="14.00">class = não</text>
</g>
<!-- 23&#45;&gt;29 -->
<g id="edge29" class="edge">
<title>23&#45;&gt;29</title>
<path fill="none" stroke="black" d="M1487.99,-341.91C1507.15,-329.66 1528.12,-316.25 1547.07,-304.13"/>
<polygon fill="black" stroke="black" points="1549.08,-307 1555.62,-298.67 1545.31,-301.1 1549.08,-307"/>
</g>
<!-- 25 -->
<g id="node26" class="node">
<title>25</title>
<path fill="#e68641" stroke="black" d="M1518.5,-187C1518.5,-187 1328.5,-187 1328.5,-187 1322.5,-187 1316.5,-181 1316.5,-175 1316.5,-175 1316.5,-116 1316.5,-116 1316.5,-110 1322.5,-104 1328.5,-104 1328.5,-104 1518.5,-104 1518.5,-104 1524.5,-104 1530.5,-110 1530.5,-116 1530.5,-116 1530.5,-175 1530.5,-175 1530.5,-181 1524.5,-187 1518.5,-187"/>
<text text-anchor="middle" x="1423.5" y="-171.8" font-family="Helvetica,sans-Serif" font-size="14.00">nome_dia_semana_sab &lt;= 0.5</text>
<text text-anchor="middle" x="1423.5" y="-156.8" font-family="Helvetica,sans-Serif" font-size="14.00">gini = 0.072</text>
<text text-anchor="middle" x="1423.5" y="-141.8" font-family="Helvetica,sans-Serif" font-size="14.00">samples = 215</text>
<text text-anchor="middle" x="1423.5" y="-126.8" font-family="Helvetica,sans-Serif" font-size="14.00">value = [207, 8]</text>
<text text-anchor="middle" x="1423.5" y="-111.8" font-family="Helvetica,sans-Serif" font-size="14.00">class = não</text>
</g>
<!-- 24&#45;&gt;25 -->
<g id="edge25" class="edge">
<title>24&#45;&gt;25</title>
<path fill="none" stroke="black" d="M1424.15,-222.91C1424.08,-214.65 1424.01,-205.86 1423.93,-197.3"/>
<polygon fill="black" stroke="black" points="1427.43,-196.99 1423.85,-187.02 1420.43,-197.05 1427.43,-196.99"/>
</g>
<!-- 28 -->
<g id="node29" class="node">
<title>28</title>
<path fill="#e58139" stroke="black" d="M1642,-179.5C1642,-179.5 1561,-179.5 1561,-179.5 1555,-179.5 1549,-173.5 1549,-167.5 1549,-167.5 1549,-123.5 1549,-123.5 1549,-117.5 1555,-111.5 1561,-111.5 1561,-111.5 1642,-111.5 1642,-111.5 1648,-111.5 1654,-117.5 1654,-123.5 1654,-123.5 1654,-167.5 1654,-167.5 1654,-173.5 1648,-179.5 1642,-179.5"/>
<text text-anchor="middle" x="1601.5" y="-164.3" font-family="Helvetica,sans-Serif" font-size="14.00">gini = 0.0</text>
<text text-anchor="middle" x="1601.5" y="-149.3" font-family="Helvetica,sans-Serif" font-size="14.00">samples = 72</text>
<text text-anchor="middle" x="1601.5" y="-134.3" font-family="Helvetica,sans-Serif" font-size="14.00">value = [72, 0]</text>
<text text-anchor="middle" x="1601.5" y="-119.3" font-family="Helvetica,sans-Serif" font-size="14.00">class = não</text>
</g>
<!-- 24&#45;&gt;28 -->
<g id="edge28" class="edge">
<title>24&#45;&gt;28</title>
<path fill="none" stroke="black" d="M1485.91,-222.91C1504.27,-210.77 1524.36,-197.49 1542.56,-185.46"/>
<polygon fill="black" stroke="black" points="1544.91,-188.1 1551.32,-179.67 1541.05,-182.26 1544.91,-188.1"/>
</g>
<!-- 26 -->
<g id="node27" class="node">
<title>26</title>
<path fill="#e68742" stroke="black" d="M1404,-68C1404,-68 1315,-68 1315,-68 1309,-68 1303,-62 1303,-56 1303,-56 1303,-12 1303,-12 1303,-6 1309,0 1315,0 1315,0 1404,0 1404,0 1410,0 1416,-6 1416,-12 1416,-12 1416,-56 1416,-56 1416,-62 1410,-68 1404,-68"/>
<text text-anchor="middle" x="1359.5" y="-52.8" font-family="Helvetica,sans-Serif" font-size="14.00">gini = 0.084</text>
<text text-anchor="middle" x="1359.5" y="-37.8" font-family="Helvetica,sans-Serif" font-size="14.00">samples = 181</text>
<text text-anchor="middle" x="1359.5" y="-22.8" font-family="Helvetica,sans-Serif" font-size="14.00">value = [173, 8]</text>
<text text-anchor="middle" x="1359.5" y="-7.8" font-family="Helvetica,sans-Serif" font-size="14.00">class = não</text>
</g>
<!-- 25&#45;&gt;26 -->
<g id="edge26" class="edge">
<title>25&#45;&gt;26</title>
<path fill="none" stroke="black" d="M1399.67,-103.73C1394.6,-95.06 1389.25,-85.9 1384.15,-77.18"/>
<polygon fill="black" stroke="black" points="1387.03,-75.17 1378.96,-68.3 1380.99,-78.7 1387.03,-75.17"/>
</g>
<!-- 27 -->
<g id="node28" class="node">
<title>27</title>
<path fill="#e58139" stroke="black" d="M1527,-68C1527,-68 1446,-68 1446,-68 1440,-68 1434,-62 1434,-56 1434,-56 1434,-12 1434,-12 1434,-6 1440,0 1446,0 1446,0 1527,0 1527,0 1533,0 1539,-6 1539,-12 1539,-12 1539,-56 1539,-56 1539,-62 1533,-68 1527,-68"/>
<text text-anchor="middle" x="1486.5" y="-52.8" font-family="Helvetica,sans-Serif" font-size="14.00">gini = 0.0</text>
<text text-anchor="middle" x="1486.5" y="-37.8" font-family="Helvetica,sans-Serif" font-size="14.00">samples = 34</text>
<text text-anchor="middle" x="1486.5" y="-22.8" font-family="Helvetica,sans-Serif" font-size="14.00">value = [34, 0]</text>
<text text-anchor="middle" x="1486.5" y="-7.8" font-family="Helvetica,sans-Serif" font-size="14.00">class = não</text>
</g>
<!-- 25&#45;&gt;27 -->
<g id="edge27" class="edge">
<title>25&#45;&gt;27</title>
<path fill="none" stroke="black" d="M1446.96,-103.73C1451.94,-95.06 1457.22,-85.9 1462.23,-77.18"/>
<polygon fill="black" stroke="black" points="1465.39,-78.71 1467.34,-68.3 1459.32,-75.22 1465.39,-78.71"/>
</g>
</g>
</svg>
